/* XPM */
static char * coin_xpm[] = {
"16 16 12 1",
" 	c None",
".	c #000000",
"+	c #030303",
"@	c #FFFFFF",
"#	c #FEFEFE",
"$	c #FFB400",
"%	c #B37E01",
"&	c #FDFDFD",
"*	c #090909",
"=	c #050505",
"-	c #060606",
";	c #040404",
"      .++.      ",
"    ..@##@..    ",
"   .#@$$$$$%.   ",
"   .&$$@@$$%.   ",
"  .@$$@$$*$$%.  ",
"  .@$$@$$.$$%.  ",
"  =&$$@$$-$$%=  ",
"  .#$$@$$.$$%.  ",
"  .#$$@$$.$$%.  ",
"  =&$$@$$-$$%=  ",
"  .@$$@$$.$$%.  ",
"  .@$$@$$*$$%.  ",
"   .$$$;;$$%.   ",
"   .$$$$$$%%.   ",
"    ..$$$$..    ",
"      .++.      "};
