/* XPM */
static char * gray_box_xpm[] = {
"16 16 5 1",
" 	c None",
".	c #000000",
"+	c #FFFFFF",
"@	c #828282",
"#	c #CBCBCB",
"  ............  ",
" .+++@@@@@@@@@. ",
".++#########@@@.",
".+###########@@.",
".+###########@@.",
".@###.####.##@@.",
".+###.####.##@@.",
".@###.####.##@@.",
".@###.####.##@@.",
".@###########@@.",
".@###########@@.",
".@###########@@.",
".@@#########@@@.",
".@@@@@@@@@@@@@@.",
" .@@@@@@@@@@@@. ",
"  ............  "};
