/* XPM */
static char * qmbox_urgnt_xpm[] = {
"16 16 6 1",
" 	c None",
".	c #000000",
"+	c #FFFFFF",
"@	c #B37E01",
"#	c #FFB400",
"$	c #A00000",
"  ............  ",
" .+++@@@@@@@@@. ",
".++#.......###@.",
".+#.$$$$$$$. #@.",
".+.$$$$$$$$$.#@.",
".@.$$$...$$$.#@.",
".@#......$$$.#@.",
".@###.$$$$$.##@.",
".@###.$$$..###@.",
".@####...#####@.",
".@###.$$$.####@.",
".@###.$$$.####@.",
".@####...#####@.",
".@############@.",
" .@@@@@@@@@@@@. ",
"  ............  "};
