/* XPM */
static char * qmbox_xpm[] = {
"16 16 5 1",
" 	c None",
".	c #000000",
"+	c #FFFFFF",
"@	c #B37E01",
"#	c #FFB400",
"  ............  ",
" .+++@@@@@@@@@. ",
".++#.......###@.",
".+#.+++++++.##@.",
".+.+++++++++.#@.",
".@.+++...+++.#@.",
".@#......+++.#@.",
".@###.+++++.##@.",
".@###.+++..###@.",
".@####...#####@.",
".@###.+++.####@.",
".@###.+++.####@.",
".@####...#####@.",
".@############@.",
" .@@@@@@@@@@@@. ",
"  ............  "};
